<?xml version="1.0" encoding="UTF-8"?>
<!DOCTYPE svg PUBLIC "-//W3C//DTD SVG 1.1//EN" "http://www.w3.org/Graphics/SVG/1.1/DTD/svg11.dtd">
<svg xmlns="http://www.w3.org/2000/svg" version="1.1" width="1057px" height="1057px" style="shape-rendering:geometricPrecision; text-rendering:geometricPrecision; image-rendering:optimizeQuality; fill-rule:evenodd; clip-rule:evenodd" xmlns:xlink="http://www.w3.org/1999/xlink">
<g><path style="opacity:0.973" fill="#e55627" d="M 275.5,66.5 C 445.834,66.3333 616.167,66.5 786.5,67C 793.698,68.858 799.198,73.0246 803,79.5C 883.908,223.654 965.574,367.321 1048,510.5C 1056.67,524.5 1056.67,538.5 1048,552.5C 966.908,693.012 886.574,834.012 807,975.5C 798.64,992.318 784.974,999.318 766,996.5C 606.832,995.17 447.666,995.17 288.5,996.5C 274.87,998.256 264.37,993.59 257,982.5C 173.667,835.167 90.3333,687.833 7,540.5C 4.16418,531.209 5.49752,522.543 11,514.5C 93.506,370.825 175.506,226.825 257,82.5C 260.609,74.0484 266.775,68.7151 275.5,66.5 Z M 293.5,95.5 C 439.001,94.1674 584.667,94.1674 730.5,95.5C 709.03,103.49 687.364,110.99 665.5,118C 562.649,151.673 459.649,184.84 356.5,217.5C 351.725,217.032 348.225,214.699 346,210.5C 328.451,172.076 310.951,133.743 293.5,95.5 Z M 772.5,111.5 C 778.266,112.113 781.1,115.446 781,121.5C 805.748,257.738 829.914,394.071 853.5,530.5C 853.167,531.167 852.833,531.833 852.5,532.5C 694.167,435.333 535.833,338.167 377.5,241C 509.059,197.313 640.725,154.147 772.5,111.5 Z M 269.5,114.5 C 274.647,120.775 278.814,127.775 282,135.5C 294.807,163.585 307.807,191.585 321,219.5C 324.944,225.729 325.277,232.062 322,238.5C 242.167,315 162.333,391.5 82.5,468C 75.3153,474.686 67.9819,481.186 60.5,487.5C 59.6858,485.048 60.1858,482.715 62,480.5C 131.444,358.608 200.61,236.608 269.5,114.5 Z M 818.5,166.5 C 820.074,166.937 821.241,167.937 822,169.5C 886.913,284.995 952.08,400.329 1017.5,515.5C 1017.29,516.086 1016.96,516.586 1016.5,517C 973.855,528.062 930.855,537.062 887.5,544C 884.126,540.557 882.293,536.39 882,531.5C 860.929,410.408 839.429,289.408 817.5,168.5C 817.863,167.817 818.196,167.15 818.5,166.5 Z M 358.5,262.5 C 521.315,361.406 683.648,461.073 845.5,561.5C 683.415,653.96 521.248,746.293 359,838.5C 358.5,646.5 358.333,454.5 358.5,262.5 Z M 327.5,269.5 C 328.666,455 328.833,640.666 328,826.5C 235.167,730.333 142.333,634.167 49.5,538C 142.366,448.633 235.032,359.133 327.5,269.5 Z M 1018.5,543.5 C 1019.04,543.56 1019.38,543.893 1019.5,544.5C 948.42,670.329 877.086,795.996 805.5,921.5C 804.656,917.52 804.823,913.52 806,909.5C 831.529,799.719 857.529,690.053 884,580.5C 885.927,575.572 889.427,572.406 894.5,571C 935.959,561.798 977.292,552.632 1018.5,543.5 Z M 850.5,590.5 C 851.147,591.274 851.48,592.274 851.5,593.5C 825.124,711.339 797.957,829.005 770,946.5C 768.976,950.68 766.31,952.68 762,952.5C 638.415,922.396 514.915,891.896 391.5,861C 388.708,860.103 386.041,858.937 383.5,857.5C 539.031,768.235 694.698,679.235 850.5,590.5 Z M 81.5,612.5 C 85.1659,615.997 88.9992,619.331 93,622.5C 168.103,701.025 243.436,779.359 319,857.5C 321.915,862.988 322.248,868.655 320,874.5C 303.916,900.333 288.082,926.333 272.5,952.5C 208.5,839.833 144.5,727.167 80.5,614.5C 80.8627,613.817 81.1961,613.15 81.5,612.5 Z M 355.5,879.5 C 469.917,907.521 584.251,936.021 698.5,965C 700.623,965.815 702.623,966.815 704.5,968C 568.499,968.833 432.499,968.667 296.5,967.5C 313.039,938.245 330.706,909.745 349.5,882C 351.611,881.155 353.611,880.322 355.5,879.5 Z"/></g>
</svg>
